<svg xmlns="http://www.w3.org/2000/svg" viewBox="0 0 520 620" role="img" aria-labelledby="title desc">
  <title id="title">Sebastian – der Laptoptrainer</title>
  <desc id="desc">Editoriale Illustration eines großen, hellbraunhaarigen Managers im hellblauen Hemd mit Laptop.</desc>
  <defs>
    <linearGradient id="bg" x1="0" y1="0" x2="1" y2="1">
      <stop offset="0" stop-color="#263525"/>
      <stop offset="1" stop-color="#0b100b"/>
    </linearGradient>
    <linearGradient id="shirt" x1="0" y1="0" x2="1" y2="1">
      <stop offset="0" stop-color="#b9dbef"/>
      <stop offset="1" stop-color="#6fa7c9"/>
    </linearGradient>
  </defs>
  <rect width="520" height="620" fill="url(#bg)"/>
  <circle cx="260" cy="225" r="178" fill="none" stroke="#69c20c" stroke-opacity=".16" stroke-width="34"/>
  <path d="M77 620c15-116 62-190 183-195 123 5 170 79 184 195" fill="url(#shirt)"/>
  <path d="M187 442l73 62 73-62-27-35h-92z" fill="#eef7fb"/>
  <path d="M213 409h94v59c-20 24-74 24-94 0z" fill="#d6a982"/>
  <ellipse cx="260" cy="268" rx="111" ry="139" fill="#e2b58c"/>
  <path d="M151 257c-3-99 38-161 114-161 80 0 118 63 109 168-18-27-40-55-61-78-51 27-101 39-162 30z" fill="#715235"/>
  <path d="M170 208c28-81 116-125 185-54-21-51-64-82-101-82-55 0-103 49-84 136z" fill="#8b6847"/>
  <path d="M180 272c16-11 36-13 54-5M286 267c18-8 38-6 54 5" fill="none" stroke="#5b402d" stroke-width="8" stroke-linecap="round"/>
  <circle cx="213" cy="281" r="7" fill="#406476"/>
  <circle cx="307" cy="281" r="7" fill="#406476"/>
  <path d="M257 286l-8 43 24 2" fill="none" stroke="#b57f5c" stroke-width="6" stroke-linecap="round"/>
  <path d="M218 355c27 20 57 20 84 0" fill="none" stroke="#9b554a" stroke-width="7" stroke-linecap="round"/>
  <path d="M176 445l-33 175h234l-33-175-84 58z" fill="url(#shirt)"/>
  <path d="M260 503v117" stroke="#4e84a5" stroke-width="4"/>
  <g transform="translate(104 470)">
    <path d="M0 116h312l-25 27H25z" fill="#050705" stroke="#6b7b68" stroke-width="3"/>
    <rect x="39" y="0" width="234" height="121" rx="7" fill="#151b14" stroke="#74826f" stroke-width="4"/>
    <rect x="53" y="14" width="206" height="91" fill="#0b100b"/>
    <circle cx="156" cy="60" r="27" fill="#69c20c"/>
    <text x="156" y="69" text-anchor="middle" font-family="Arial Black, sans-serif" font-size="24" fill="#071006">IWF</text>
  </g>
  <path d="M104 62h151" stroke="#69c20c" stroke-width="7"/>
  <text x="104" y="48" font-family="Arial Black, sans-serif" font-size="18" letter-spacing="3" fill="#dce6d8">LAPTOPTRAINER</text>
</svg>
