<svg xmlns="http://www.w3.org/2000/svg" viewBox="0 0 520 620" role="img" aria-labelledby="title desc">
  <title id="title">Sebastian – Der Laptoptrainer</title>
  <desc id="desc">Redaktionelle Illustration eines Managers im hellblauen Hemd mit Laptop.</desc>
  <defs>
    <linearGradient id="bg" x1="0" y1="0" x2="1" y2="1"><stop stop-color="#22361e"/><stop offset="1" stop-color="#070b07"/></linearGradient>
    <linearGradient id="shirt" x1="0" y1="0" x2="0" y2="1"><stop stop-color="#d8efff"/><stop offset="1" stop-color="#75acd0"/></linearGradient>
  </defs>
  <rect width="520" height="620" rx="18" fill="url(#bg)"/>
  <circle cx="260" cy="235" r="185" fill="#69c20c" opacity=".12"/>
  <path d="M85 620c12-150 79-230 175-230s163 80 175 230" fill="url(#shirt)"/>
  <path d="M169 405l91 78 91-78 22 215H147z" fill="#bfe1f7"/>
  <path d="M222 394h76l-8 65h-60z" fill="#e3b58f"/>
  <ellipse cx="260" cy="267" rx="101" ry="126" fill="#e8bd98"/>
  <path d="M158 258c6-103 61-152 107-152 65 0 112 51 106 154-19-34-53-48-85-55-48-10-85 4-128 53z" fill="#7b593e"/>
  <path d="M178 207c21-70 66-107 118-99 42 7 73 35 83 84-34-21-61-27-92-29-42-3-73 11-109 44z" fill="#8c684a"/>
  <ellipse cx="221" cy="278" rx="9" ry="7" fill="#22301f"/><ellipse cx="299" cy="278" rx="9" ry="7" fill="#22301f"/>
  <path d="M222 333c24 19 52 19 76 0" fill="none" stroke="#9e5f54" stroke-width="7" stroke-linecap="round"/>
  <path d="M252 286l-8 34h25" fill="none" stroke="#c58c70" stroke-width="5" stroke-linecap="round"/>
  <rect x="98" y="474" width="324" height="125" rx="9" fill="#121812" stroke="#69c20c" stroke-width="5"/>
  <rect x="116" y="491" width="288" height="87" rx="4" fill="#253025"/>
  <circle cx="260" cy="535" r="24" fill="#69c20c"/><path d="M248 536l9 10 18-23" fill="none" stroke="#091009" stroke-width="7" stroke-linecap="round" stroke-linejoin="round"/>
  <text x="260" y="70" text-anchor="middle" fill="#69c20c" font-family="Arial Black,Arial" font-size="22" letter-spacing="4">LAPTOPTRAINER</text>
</svg>
